{
  "asset": {
    "version": "2.0",
    "generator": "3dpea GLTFExporter"
  },
  "scenes": [
    {
      "name": "AuxScene",
      "nodes": [
        2
      ]
    }
  ],
  "scene": 0,
  "nodes": [
    {
      "extras": {
        "attributes": {
          "mode": {
            "name": "ObjectMode_Normal",
            "value": 0
          },
          "isInstanceDefinitionObject": false,
          "visible": true,
          "name": "",
          "castsShadows": true,
          "receivesShadows": true,
          "linetypeSource": {
            "name": "ObjectLinetypeSource_LinetypeFromLayer",
            "value": 0
          },
          "colorSource": {
            "name": "ObjectColorSource_ColorFromLayer",
            "value": 0
          },
          "plotColorSource": {
            "name": "ObjectPlotColorSource_PlotColorFromLayer",
            "value": 0
          },
          "plotWeightSource": {
            "name": "ObjectPlotWeightSource_PlotWeightFromLayer",
            "value": 0
          },
          "id": "c97c18b6-1657-4d1b-8c80-37e4d6fd43cf",
          "url": "",
          "layerIndex": 0,
          "materialIndex": -1,
          "materialSource": {
            "name": "ObjectMaterialSource_MaterialFromLayer",
            "value": 0
          },
          "objectColor": {
            "r": 0,
            "g": 0,
            "b": 0,
            "a": 255
          },
          "plotColor": {
            "r": 0,
            "g": 0,
            "b": 0,
            "a": 255
          },
          "displayOrder": 0,
          "plotWeight": 0,
          "objectDecoration": {
            "name": "ObjectDecoration_None",
            "value": 0
          },
          "wireDensity": 1,
          "viewportId": "00000000-0000-0000-0000-000000000000",
          "activeSpace": {
            "name": "ActiveSpace_ModelSpace",
            "value": 1
          },
          "groupCount": 0,
          "userStringCount": 0,
          "geometry": {
            "isClosed": false,
            "hasCachedTextureCoordinates": false,
            "hasPrincipalCurvatures": false,
            "partitionCount": 0,
            "objectType": {
              "name": "ObjectType_Mesh",
              "value": 32
            },
            "isDeformable": true,
            "hasBrepForm": false,
            "userStringCount": 0
          },
          "drawColor": {
            "r": 230,
            "g": 230,
            "b": 230,
            "a": 255
          }
        },
        "objectType": "Mesh"
      },
      "mesh": 0
    },
    {
      "extras": {
        "attributes": {
          "mode": {
            "name": "ObjectMode_Normal",
            "value": 0
          },
          "isInstanceDefinitionObject": false,
          "visible": true,
          "name": "",
          "castsShadows": true,
          "receivesShadows": true,
          "linetypeSource": {
            "name": "ObjectLinetypeSource_LinetypeFromLayer",
            "value": 0
          },
          "colorSource": {
            "name": "ObjectColorSource_ColorFromLayer",
            "value": 0
          },
          "plotColorSource": {
            "name": "ObjectPlotColorSource_PlotColorFromLayer",
            "value": 0
          },
          "plotWeightSource": {
            "name": "ObjectPlotWeightSource_PlotWeightFromLayer",
            "value": 0
          },
          "id": "0bdb3aed-4408-48ba-a871-9372016db9f6",
          "url": "",
          "layerIndex": 0,
          "materialIndex": -1,
          "materialSource": {
            "name": "ObjectMaterialSource_MaterialFromLayer",
            "value": 0
          },
          "objectColor": {
            "r": 0,
            "g": 0,
            "b": 0,
            "a": 255
          },
          "plotColor": {
            "r": 0,
            "g": 0,
            "b": 0,
            "a": 255
          },
          "displayOrder": 0,
          "plotWeight": 0,
          "objectDecoration": {
            "name": "ObjectDecoration_None",
            "value": 0
          },
          "wireDensity": 1,
          "viewportId": "00000000-0000-0000-0000-000000000000",
          "activeSpace": {
            "name": "ActiveSpace_ModelSpace",
            "value": 1
          },
          "groupCount": 0,
          "userStringCount": 0,
          "geometry": {
            "isClosed": false,
            "hasCachedTextureCoordinates": false,
            "hasPrincipalCurvatures": false,
            "partitionCount": 0,
            "objectType": {
              "name": "ObjectType_Mesh",
              "value": 32
            },
            "isDeformable": true,
            "hasBrepForm": false,
            "userStringCount": 0
          },
          "drawColor": {
            "r": 230,
            "g": 230,
            "b": 230,
            "a": 255
          }
        },
        "objectType": "Mesh"
      },
      "mesh": 1
    },
    {
      "matrix": [
        1,
        0,
        0,
        0,
        0,
        -2.220446049250313e-16,
        -1.0000000000000002,
        0,
        0,
        1.0000000000000002,
        -2.220446049250313e-16,
        0,
        0,
        0,
        0,
        1
      ],
      "name": "test",
      "extras": {
        "layers": [
          {
            "name": "Cubierta",
            "fullPath": "Cubierta",
            "id": "c18c1c68-81db-4967-99ac-091ce9ed8e53",
            "parentLayerId": "00000000-0000-0000-0000-000000000000",
            "igesLevel": -1,
            "color": {
              "r": 230,
              "g": 230,
              "b": 230,
              "a": 255
            },
            "plotColor": {
              "r": 230,
              "g": 230,
              "b": 230,
              "a": 255
            },
            "plotWeight": 0,
            "linetypeIndex": -1,
            "renderMaterialIndex": -1,
            "visible": true,
            "locked": false,
            "expanded": true,
            "userStringCount": 0
          }
        ],
        "groups": [],
        "settings": {
          "modelUrl": "",
          "modelBasePoint": [
            0,
            0,
            0
          ],
          "modelAbsoluteTolerance": 0.001,
          "modelAngleToleranceRadians": 0.017453292519943295,
          "modelAngleToleranceDegrees": 1,
          "modelRelativeTolerance": 0.01,
          "pageAbsoluteTolerance": 0.01,
          "pageAngleToleranceRadians": 0.017453292519943295,
          "pageAngleToleranceDegrees": 1,
          "pageRelativeTolerance": 0.01,
          "modelUnitSystem": {
            "name": "UnitSystem_Meters",
            "value": 4
          },
          "pageUnitSystem": {
            "name": "UnitSystem_Millimeters",
            "value": 2
          }
        },
        "objectType": "File3dm",
        "materials": []
      },
      "children": [
        0,
        1
      ]
    }
  ],
  "bufferViews": [
    {
      "buffer": 0,
      "byteOffset": 0,
      "byteLength": 1032,
      "target": 34962,
      "byteStride": 12
    },
    {
      "buffer": 0,
      "byteOffset": 1032,
      "byteLength": 1032,
      "target": 34962,
      "byteStride": 12
    },
    {
      "buffer": 0,
      "byteOffset": 2064,
      "byteLength": 688,
      "target": 34962,
      "byteStride": 8
    },
    {
      "buffer": 0,
      "byteOffset": 2752,
      "byteLength": 776,
      "target": 34963
    },
    {
      "buffer": 0,
      "byteOffset": 3528,
      "byteLength": 3456,
      "target": 34962,
      "byteStride": 12
    },
    {
      "buffer": 0,
      "byteOffset": 6984,
      "byteLength": 3456,
      "target": 34962,
      "byteStride": 12
    },
    {
      "buffer": 0,
      "byteOffset": 10440,
      "byteLength": 2304,
      "target": 34962,
      "byteStride": 8
    },
    {
      "buffer": 0,
      "byteOffset": 12744,
      "byteLength": 3060,
      "target": 34963
    }
  ],
  "buffers": [
    {
      "byteLength": 15804,
      "uri": "data:application/octet-stream;base64,"
    }
  ],
  "accessors": [
    {
      "bufferView": 0,
      "componentType": 5126,
      "count": 86,
      "max": [
        3.432955741882324,
        0.2627769112586975,
        6.925292491912842
      ],
      "min": [
        1.8732993602752686,
        -0.34914159774780273,
        6.452253818511963
      ],
      "type": "VEC3"
    },
    {
      "bufferView": 1,
      "componentType": 5126,
      "count": 86,
      "max": [
        -0.21697939932346344,
        0.1457337588071823,
        0.9743565320968628
      ],
      "min": [
        -0.39224204421043396,
        -0.1716361790895462,
        0.9088227152824402
      ],
      "type": "VEC3"
    },
    {
      "bufferView": 2,
      "componentType": 5126,
      "count": 86,
      "max": [
        1,
        1
      ],
      "min": [
        0,
        0
      ],
      "type": "VEC2"
    },
    {
      "bufferView": 3,
      "componentType": 5123,
      "count": 387,
      "max": [
        85
      ],
      "min": [
        0
      ],
      "type": "SCALAR"
    },
    {
      "bufferView": 4,
      "componentType": 5126,
      "count": 288,
      "max": [
        1.9118876457214355,
        0.6139493584632874,
        6.489687442779541
      ],
      "min": [
        -0.835652768611908,
        -0.7666436433792114,
        4.949120998382568
      ],
      "type": "VEC3"
    },
    {
      "bufferView": 5,
      "componentType": 5126,
      "count": 288,
      "max": [
        -0.3904436230659485,
        0.38845646381378174,
        0.9158004522323608
      ],
      "min": [
        -0.6121161580085754,
        -0.45441102981567383,
        0.7102172374725342
      ],
      "type": "VEC3"
    },
    {
      "bufferView": 6,
      "componentType": 5126,
      "count": 288,
      "max": [
        1,
        1
      ],
      "min": [
        0,
        0
      ],
      "type": "VEC2"
    },
    {
      "bufferView": 7,
      "componentType": 5123,
      "count": 1530,
      "max": [
        287
      ],
      "min": [
        0
      ],
      "type": "SCALAR"
    }
  ],
  "materials": [
    {
      "pbrMetallicRoughness": {
        "metallicFactor": 0.8,
        "roughnessFactor": 1
      },
      "doubleSided": true,
      "name": "default"
    },
    {
      "pbrMetallicRoughness": {
        "metallicFactor": 0.8,
        "roughnessFactor": 1
      },
      "doubleSided": true,
      "name": "default"
    }
  ],
  "meshes": [
    {
      "primitives": [
        {
          "mode": 4,
          "attributes": {
            "POSITION": 0,
            "NORMAL": 1,
            "TEXCOORD_0": 2
          },
          "indices": 3,
          "material": 0
        }
      ]
    },
    {
      "primitives": [
        {
          "mode": 4,
          "attributes": {
            "POSITION": 4,
            "NORMAL": 5,
            "TEXCOORD_0": 6
          },
          "indices": 7,
          "material": 1
        }
      ]
    }
  ]
}