{
  "asset": {
    "version": "2.0",
    "generator": "3dpea GLTFExporter"
  },
  "scenes": [
    {
      "name": "AuxScene",
      "nodes": [
        2
      ]
    }
  ],
  "scene": 0,
  "nodes": [
    {
      "extras": {
        "attributes": {
          "mode": {
            "name": "ObjectMode_Normal",
            "value": 0
          },
          "isInstanceDefinitionObject": false,
          "visible": true,
          "name": "",
          "castsShadows": true,
          "receivesShadows": true,
          "linetypeSource": {
            "name": "ObjectLinetypeSource_LinetypeFromLayer",
            "value": 0
          },
          "colorSource": {
            "name": "ObjectColorSource_ColorFromLayer",
            "value": 0
          },
          "plotColorSource": {
            "name": "ObjectPlotColorSource_PlotColorFromLayer",
            "value": 0
          },
          "plotWeightSource": {
            "name": "ObjectPlotWeightSource_PlotWeightFromLayer",
            "value": 0
          },
          "id": "5ed03804-8e40-4614-a262-70bf5d6fa0d0",
          "url": "",
          "layerIndex": 0,
          "materialIndex": -1,
          "materialSource": {
            "name": "ObjectMaterialSource_MaterialFromLayer",
            "value": 0
          },
          "objectColor": {
            "r": 0,
            "g": 0,
            "b": 0,
            "a": 255
          },
          "plotColor": {
            "r": 0,
            "g": 0,
            "b": 0,
            "a": 255
          },
          "displayOrder": 0,
          "plotWeight": 0,
          "objectDecoration": {
            "name": "ObjectDecoration_None",
            "value": 0
          },
          "wireDensity": 1,
          "viewportId": "00000000-0000-0000-0000-000000000000",
          "activeSpace": {
            "name": "ActiveSpace_ModelSpace",
            "value": 1
          },
          "groupCount": 0,
          "userStringCount": 0,
          "geometry": {
            "isClosed": true,
            "hasCachedTextureCoordinates": false,
            "hasPrincipalCurvatures": false,
            "partitionCount": 0,
            "objectType": {
              "name": "ObjectType_Mesh",
              "value": 32
            },
            "isDeformable": true,
            "hasBrepForm": false,
            "userStringCount": 0
          },
          "drawColor": {
            "r": 164,
            "g": 160,
            "b": 156,
            "a": 255
          }
        },
        "objectType": "Mesh"
      },
      "mesh": 0
    },
    {
      "extras": {
        "attributes": {
          "mode": {
            "name": "ObjectMode_Normal",
            "value": 0
          },
          "isInstanceDefinitionObject": false,
          "visible": true,
          "name": "",
          "castsShadows": true,
          "receivesShadows": true,
          "linetypeSource": {
            "name": "ObjectLinetypeSource_LinetypeFromLayer",
            "value": 0
          },
          "colorSource": {
            "name": "ObjectColorSource_ColorFromLayer",
            "value": 0
          },
          "plotColorSource": {
            "name": "ObjectPlotColorSource_PlotColorFromLayer",
            "value": 0
          },
          "plotWeightSource": {
            "name": "ObjectPlotWeightSource_PlotWeightFromLayer",
            "value": 0
          },
          "id": "c9c30572-edac-4f64-b9b7-431e01b4a1e6",
          "url": "",
          "layerIndex": 1,
          "materialIndex": -1,
          "materialSource": {
            "name": "ObjectMaterialSource_MaterialFromLayer",
            "value": 0
          },
          "objectColor": {
            "r": 0,
            "g": 0,
            "b": 0,
            "a": 255
          },
          "plotColor": {
            "r": 0,
            "g": 0,
            "b": 0,
            "a": 255
          },
          "displayOrder": 0,
          "plotWeight": 0,
          "objectDecoration": {
            "name": "ObjectDecoration_None",
            "value": 0
          },
          "wireDensity": 1,
          "viewportId": "00000000-0000-0000-0000-000000000000",
          "activeSpace": {
            "name": "ActiveSpace_ModelSpace",
            "value": 1
          },
          "groupCount": 0,
          "userStringCount": 0,
          "geometry": {
            "isClosed": true,
            "hasCachedTextureCoordinates": false,
            "hasPrincipalCurvatures": false,
            "partitionCount": 0,
            "objectType": {
              "name": "ObjectType_Mesh",
              "value": 32
            },
            "isDeformable": true,
            "hasBrepForm": false,
            "userStringCount": 0
          },
          "drawColor": {
            "r": 205,
            "g": 179,
            "b": 139,
            "a": 255
          }
        },
        "objectType": "Mesh"
      },
      "mesh": 1
    },
    {
      "matrix": [
        1,
        0,
        0,
        0,
        0,
        -2.220446049250313e-16,
        -1.0000000000000002,
        0,
        0,
        1.0000000000000002,
        -2.220446049250313e-16,
        0,
        0,
        0,
        0,
        1
      ],
      "name": "test",
      "extras": {
        "layers": [
          {
            "name": "Colmna",
            "fullPath": "Colmna",
            "id": "80b6e821-b84d-44d8-bcc2-bb67b9690843",
            "parentLayerId": "00000000-0000-0000-0000-000000000000",
            "igesLevel": -1,
            "color": {
              "r": 164,
              "g": 160,
              "b": 156,
              "a": 255
            },
            "plotColor": {
              "r": 164,
              "g": 160,
              "b": 156,
              "a": 255
            },
            "plotWeight": 0,
            "linetypeIndex": -1,
            "renderMaterialIndex": -1,
            "visible": true,
            "locked": false,
            "expanded": true,
            "userStringCount": 0
          },
          {
            "name": "Piso",
            "fullPath": "Piso",
            "id": "deee5b47-c1c0-4ec2-bf6f-f014c282b9a6",
            "parentLayerId": "00000000-0000-0000-0000-000000000000",
            "igesLevel": -1,
            "color": {
              "r": 205,
              "g": 179,
              "b": 139,
              "a": 255
            },
            "plotColor": {
              "r": 205,
              "g": 179,
              "b": 139,
              "a": 255
            },
            "plotWeight": 0,
            "linetypeIndex": -1,
            "renderMaterialIndex": -1,
            "visible": true,
            "locked": false,
            "expanded": true,
            "userStringCount": 0
          }
        ],
        "groups": [],
        "settings": {
          "modelUrl": "",
          "modelBasePoint": [
            0,
            0,
            0
          ],
          "modelAbsoluteTolerance": 0.001,
          "modelAngleToleranceRadians": 0.017453292519943295,
          "modelAngleToleranceDegrees": 1,
          "modelRelativeTolerance": 0.01,
          "pageAbsoluteTolerance": 0.01,
          "pageAngleToleranceRadians": 0.017453292519943295,
          "pageAngleToleranceDegrees": 1,
          "pageRelativeTolerance": 0.01,
          "modelUnitSystem": {
            "name": "UnitSystem_Meters",
            "value": 4
          },
          "pageUnitSystem": {
            "name": "UnitSystem_Millimeters",
            "value": 2
          }
        },
        "objectType": "File3dm",
        "materials": []
      },
      "children": [
        0,
        1
      ]
    }
  ],
  "bufferViews": [
    {
      "buffer": 0,
      "byteOffset": 0,
      "byteLength": 57804,
      "target": 34962,
      "byteStride": 12
    },
    {
      "buffer": 0,
      "byteOffset": 57804,
      "byteLength": 57804,
      "target": 34962,
      "byteStride": 12
    },
    {
      "buffer": 0,
      "byteOffset": 115608,
      "byteLength": 38536,
      "target": 34962,
      "byteStride": 8
    },
    {
      "buffer": 0,
      "byteOffset": 154144,
      "byteLength": 50436,
      "target": 34963
    },
    {
      "buffer": 0,
      "byteOffset": 204580,
      "byteLength": 141852,
      "target": 34962,
      "byteStride": 12
    },
    {
      "buffer": 0,
      "byteOffset": 346432,
      "byteLength": 141852,
      "target": 34962,
      "byteStride": 12
    },
    {
      "buffer": 0,
      "byteOffset": 488284,
      "byteLength": 94568,
      "target": 34962,
      "byteStride": 8
    },
    {
      "buffer": 0,
      "byteOffset": 582852,
      "byteLength": 106284,
      "target": 34963
    }
  ],
  "buffers": [
    {
      "byteLength": 689136,
      "uri": "data:application/octet-stream;base64,"
    }
  ],
  "accessors": [
    {
      "bufferView": 0,
      "componentType": 5126,
      "count": 4817,
      "max": [
        -0.761884868144989,
        1.0870307683944702,
        3.1938188076019287
      ],
      "min": [
        -2.594251871109009,
        -1.0872162580490112,
        0
      ],
      "type": "VEC3"
    },
    {
      "bufferView": 1,
      "componentType": 5126,
      "count": 4817,
      "max": [
        0.9999884366989136,
        0.9999974966049194,
        0.9956194758415222
      ],
      "min": [
        -0.9853551983833313,
        -0.9999974966049194,
        -1
      ],
      "type": "VEC3"
    },
    {
      "bufferView": 2,
      "componentType": 5126,
      "count": 4817,
      "max": [
        0.983483076095581,
        0.99853515625
      ],
      "min": [
        0,
        0
      ],
      "type": "VEC2"
    },
    {
      "bufferView": 3,
      "componentType": 5123,
      "count": 25218,
      "max": [
        4816
      ],
      "min": [
        0
      ],
      "type": "SCALAR"
    },
    {
      "bufferView": 4,
      "componentType": 5126,
      "count": 11821,
      "max": [
        10.331668853759766,
        6.597096920013428,
        8.60489984680456e-17
      ],
      "min": [
        -2.5941507816314697,
        -6.540966033935547,
        -0.06003005802631378
      ],
      "type": "VEC3"
    },
    {
      "bufferView": 5,
      "componentType": 5126,
      "count": 11821,
      "max": [
        0.9721394181251526,
        1,
        1
      ],
      "min": [
        -1,
        -0.9999995827674866,
        -1
      ],
      "type": "VEC3"
    },
    {
      "bufferView": 6,
      "componentType": 5126,
      "count": 11821,
      "max": [
        1,
        1
      ],
      "min": [
        0,
        0
      ],
      "type": "VEC2"
    },
    {
      "bufferView": 7,
      "componentType": 5123,
      "count": 53142,
      "max": [
        11820
      ],
      "min": [
        0
      ],
      "type": "SCALAR"
    }
  ],
  "materials": [
    {
      "pbrMetallicRoughness": {
        "metallicFactor": 0.8,
        "roughnessFactor": 1
      },
      "doubleSided": true,
      "name": "default"
    },
    {
      "pbrMetallicRoughness": {
        "metallicFactor": 0.8,
        "roughnessFactor": 1
      },
      "doubleSided": true,
      "name": "default"
    }
  ],
  "meshes": [
    {
      "primitives": [
        {
          "mode": 4,
          "attributes": {
            "POSITION": 0,
            "NORMAL": 1,
            "TEXCOORD_0": 2
          },
          "indices": 3,
          "material": 0
        }
      ]
    },
    {
      "primitives": [
        {
          "mode": 4,
          "attributes": {
            "POSITION": 4,
            "NORMAL": 5,
            "TEXCOORD_0": 6
          },
          "indices": 7,
          "material": 1
        }
      ]
    }
  ]
}