{
  "asset": {
    "version": "2.0",
    "generator": "3dpea GLTFExporter"
  },
  "scenes": [
    {
      "name": "AuxScene",
      "nodes": [
        1
      ]
    }
  ],
  "scene": 0,
  "nodes": [
    {
      "extras": {
        "attributes": {
          "mode": {
            "name": "ObjectMode_Normal",
            "value": 0
          },
          "isInstanceDefinitionObject": false,
          "visible": true,
          "name": "",
          "castsShadows": true,
          "receivesShadows": true,
          "linetypeSource": {
            "name": "ObjectLinetypeSource_LinetypeFromLayer",
            "value": 0
          },
          "colorSource": {
            "name": "ObjectColorSource_ColorFromLayer",
            "value": 0
          },
          "plotColorSource": {
            "name": "ObjectPlotColorSource_PlotColorFromLayer",
            "value": 0
          },
          "plotWeightSource": {
            "name": "ObjectPlotWeightSource_PlotWeightFromLayer",
            "value": 0
          },
          "id": "ce2ccf20-edfb-4e12-ae49-a32399c270d4",
          "url": "",
          "layerIndex": 0,
          "materialIndex": -1,
          "materialSource": {
            "name": "ObjectMaterialSource_MaterialFromLayer",
            "value": 0
          },
          "objectColor": {
            "r": 0,
            "g": 0,
            "b": 0,
            "a": 255
          },
          "plotColor": {
            "r": 0,
            "g": 0,
            "b": 0,
            "a": 255
          },
          "displayOrder": 0,
          "plotWeight": 0,
          "objectDecoration": {
            "name": "ObjectDecoration_None",
            "value": 0
          },
          "wireDensity": 1,
          "viewportId": "00000000-0000-0000-0000-000000000000",
          "activeSpace": {
            "name": "ActiveSpace_ModelSpace",
            "value": 1
          },
          "groupCount": 0,
          "userStringCount": 0,
          "geometry": {
            "pathStart": [
              10.331668975189656,
              -0.40688459423325446,
              0
            ],
            "pathEnd": [
              10.331668975189656,
              -0.40688459423325446,
              -0.08
            ],
            "pathTangent": [
              0,
              0,
              -1
            ],
            "miterPlaneNormalAtStart": [
              0,
              0,
              1
            ],
            "miterPlaneNormalAtEnd": [
              0,
              0,
              1
            ],
            "isMiteredAtStart": false,
            "isMiteredAtEnd": false,
            "isSolid": true,
            "isCappedAtBottom": true,
            "isCappedAtTop": true,
            "capCount": 2,
            "profileCount": 1,
            "objectType": {
              "name": "ObjectType_Extrusion",
              "value": 1073741824
            },
            "isDeformable": false,
            "hasBrepForm": true,
            "userStringCount": 0
          },
          "drawColor": {
            "r": 0,
            "g": 0,
            "b": 0,
            "a": 255
          }
        },
        "objectType": "Extrusion"
      },
      "mesh": 0
    },
    {
      "matrix": [
        1,
        0,
        0,
        0,
        0,
        -2.220446049250313e-16,
        -1.0000000000000002,
        0,
        0,
        1.0000000000000002,
        -2.220446049250313e-16,
        0,
        0,
        0,
        0,
        1
      ],
      "name": "test",
      "extras": {
        "layers": [
          {
            "name": "Default",
            "fullPath": "Default",
            "id": "212960d6-ad46-439d-8516-772ce85fde03",
            "parentLayerId": "00000000-0000-0000-0000-000000000000",
            "igesLevel": -1,
            "color": {
              "r": 0,
              "g": 0,
              "b": 0,
              "a": 255
            },
            "plotColor": {
              "r": 0,
              "g": 0,
              "b": 0,
              "a": 255
            },
            "plotWeight": 0,
            "linetypeIndex": -1,
            "renderMaterialIndex": -1,
            "visible": true,
            "locked": false,
            "expanded": true,
            "userStringCount": 0
          }
        ],
        "groups": [],
        "settings": {
          "modelUrl": "",
          "modelBasePoint": [
            0,
            0,
            0
          ],
          "modelAbsoluteTolerance": 0.001,
          "modelAngleToleranceRadians": 0.017453292519943295,
          "modelAngleToleranceDegrees": 1,
          "modelRelativeTolerance": 0.01,
          "pageAbsoluteTolerance": 0.01,
          "pageAngleToleranceRadians": 0.017453292519943295,
          "pageAngleToleranceDegrees": 1,
          "pageRelativeTolerance": 0.01,
          "modelUnitSystem": {
            "name": "UnitSystem_Meters",
            "value": 4
          },
          "pageUnitSystem": {
            "name": "UnitSystem_Millimeters",
            "value": 2
          }
        },
        "objectType": "File3dm",
        "materials": [],
        "nowCenter": true
      },
      "children": [
        0
      ]
    }
  ],
  "bufferViews": [
    {
      "buffer": 0,
      "byteOffset": 0,
      "byteLength": 7224,
      "target": 34962,
      "byteStride": 12
    },
    {
      "buffer": 0,
      "byteOffset": 7224,
      "byteLength": 7224,
      "target": 34962,
      "byteStride": 12
    },
    {
      "buffer": 0,
      "byteOffset": 14448,
      "byteLength": 4816,
      "target": 34962,
      "byteStride": 8
    },
    {
      "buffer": 0,
      "byteOffset": 19264,
      "byteLength": 3552,
      "target": 34963
    }
  ],
  "buffers": [
    {
      "byteLength": 22816,
      "uri": "data:application/octet-stream;base64,"
    }
  ],
  "accessors": [
    {
      "bufferView": 0,
      "componentType": 5126,
      "count": 602,
      "max": [
        10.331668853759766,
        6.597096920013428,
        0
      ],
      "min": [
        -2.5941507816314697,
        -6.5409135818481445,
        -0.07999999821186066
      ],
      "type": "VEC3"
    },
    {
      "bufferView": 1,
      "componentType": 5126,
      "count": 602,
      "max": [
        0.9719292521476746,
        1,
        1
      ],
      "min": [
        -1,
        -0.999988853931427,
        -1
      ],
      "type": "VEC3"
    },
    {
      "bufferView": 2,
      "componentType": 5126,
      "count": 602,
      "max": [
        1,
        1
      ],
      "min": [
        0,
        0
      ],
      "type": "VEC2"
    },
    {
      "bufferView": 3,
      "componentType": 5123,
      "count": 1776,
      "max": [
        601
      ],
      "min": [
        0
      ],
      "type": "SCALAR"
    }
  ],
  "materials": [
    {
      "pbrMetallicRoughness": {
        "metallicFactor": 0.8,
        "roughnessFactor": 1
      },
      "doubleSided": true,
      "name": "default"
    }
  ],
  "meshes": [
    {
      "primitives": [
        {
          "mode": 4,
          "attributes": {
            "POSITION": 0,
            "NORMAL": 1,
            "TEXCOORD_0": 2
          },
          "indices": 3,
          "material": 0
        }
      ]
    }
  ]
}